# xmcd
#
# Track frame offsets:
#	150
#	15515
#	31602
#	50450
#	68582
#	90842
#	111200
#	129812
#	145702
#	160962
#	179025
#
# Disc length: 2842 seconds
#
# Revision: 1
# Processed by: cddbd v1.5.1PL0 Copyright (c) Steve Scherf et al.
# Submitted via: audiograbber 1.83.01
#
DISCID=7e0b180b
DTITLE=Stef Carse - Achy breaky danse
DYEAR=1993
DGENRE=Country
TTITLE0=Achy breaky danse
TTITLE1=Elle est my love
TTITLE2=Lara
TTITLE3=Suspicious minds
TTITLE4=Just a little lovin'
TTITLE5=Comme je suis
TTITLE6=Miroir miroir
TTITLE7=Rebelle
TTITLE8=Burning love
TTITLE9=Goodbye
TTITLE10=Achy breaky danse (remix)
EXTD=
EXTT0=
EXTT1=
EXTT2=
EXTT3=
EXTT4=
EXTT5=
EXTT6=
EXTT7=
EXTT8=
EXTT9=
EXTT10=
PLAYORDER=
